<svg xmlns="http://www.w3.org/2000/svg" viewBox="0 0 64 64">
  <defs>
    <radialGradient id="ocean" cx="35%" cy="25%" r="75%">
      <stop offset="0" stop-color="#1f8fbd"/>
      <stop offset="0.55" stop-color="#07527e"/>
      <stop offset="1" stop-color="#032b50"/>
    </radialGradient>
    <linearGradient id="land" x1="0" y1="0" x2="1" y2="1">
      <stop offset="0" stop-color="#b7c64b"/>
      <stop offset="1" stop-color="#5f7d1d"/>
    </linearGradient>
    <filter id="shadow" x="-30%" y="-30%" width="160%" height="160%">
      <feDropShadow dx="1.5" dy="2" stdDeviation="1.5" flood-color="#001a30" flood-opacity=".45"/>
    </filter>
  </defs>

  <circle cx="32" cy="32" r="29" fill="url(#ocean)" stroke="#0b4165" stroke-width="1.5" filter="url(#shadow)"/>

  <path d="M10 20c4-5 10-7 15-6l3 4-3 4-5 1-2 5-5-1-4-4z"
        fill="url(#land)" opacity=".95"/>
  <path d="M21 29l6 2 2 5-2 4 2 7-4 8-4-7 1-6-3-5z"
        fill="url(#land)" opacity=".95"/>
  <path d="M40 15l8 1 3 4 4 2-1 5-4 1-2 4-5-1-3-5 2-4z"
        fill="url(#land)" opacity=".95"/>
  <path d="M42 29l7 2 5 5-2 7-5 5-5-4 1-5-3-4z"
        fill="url(#land)" opacity=".95"/>

  <text x="32" y="48" text-anchor="middle"
        font-family="Georgia, 'Times New Roman', serif"
        font-size="42" font-weight="700"
        fill="#e8f000" stroke="#d0d900" stroke-width=".35">I</text>
</svg>
